<?xml version="1.0" encoding="UTF-8"?>
<svg xmlns="http://www.w3.org/2000/svg" width="480pt" height="480pt"
     viewBox="0 0 480 480" version="1.1">
    <g id="surface1492">
        <path style=" stroke:none;fill-rule:nonzero;fill:currentColor;fill-opacity:1;"
              d="M 120 67.5 C 95.144531 67.5 75 87.644531 75 112.5 L 75 292.5 C 75 317.324219 95.175781 337.5 120 337.5 L 187.5 337.5 L 187.5 374.195312 C 187.5 374.296875 187.527344 374.398438 187.527344 374.503906 C 187.527344 374.667969 187.5 374.832031 187.5 375 C 187.5 399.816406 207.683594 420 232.5 420 L 390 420 C 398.28125 420 405 413.28125 405 405 C 405 398.140625 400.359375 392.414062 394.074219 390.628906 L 394.085938 390.570312 C 391.371094 389.746094 382.5 386.191406 382.5 375 C 382.5 363.808594 391.371094 360.253906 394.085938 359.429688 L 394.074219 359.386719 C 394.582031 359.238281 395.085938 359.101562 395.566406 358.902344 C 396.015625 358.71875 396.429688 358.480469 396.855469 358.257812 C 397.148438 358.097656 397.453125 357.964844 397.734375 357.789062 C 402.070312 355.15625 405 350.4375 405 345 C 405 344.875 404.960938 344.757812 404.957031 344.632812 C 404.960938 344.484375 405 344.34375 405 344.195312 L 405 180 C 405 163.433594 391.566406 150 375 150 L 292.5 150 L 292.5 97.5 C 292.5 80.933594 279.066406 67.5 262.5 67.5 Z M 120 97.5 L 258.75 97.5 C 260.820312 97.5 262.5 99.179688 262.5 101.25 L 262.5 150 L 232.5 150 C 207.644531 150 187.5 170.144531 187.5 195 L 187.5 247.5 L 120 247.5 C 114.734375 247.5 109.699219 248.453125 105 250.121094 L 105 112.5 C 105 104.25 111.75 97.5 120 97.5 Z M 232.5 180 L 371.25 180 C 373.320312 180 375 181.679688 375 183.75 L 375 330 L 232.5 330 C 227.234375 330 222.199219 330.953125 217.5 332.621094 L 217.5 195 C 217.5 186.710938 224.210938 180 232.5 180 Z M 262.5 217.5 C 254.21875 217.5 247.5 224.21875 247.5 232.5 C 247.5 240.78125 254.21875 247.5 262.5 247.5 L 330 247.5 C 338.28125 247.5 345 240.78125 345 232.5 C 345 224.21875 338.28125 217.5 330 217.5 Z M 120 277.5 L 187.5 277.5 L 187.5 307.5 L 120 307.5 C 111.75 307.5 105 300.75 105 292.5 C 105 284.25 111.75 277.5 120 277.5 Z M 232.5 360 L 354.871094 360 C 353.394531 364.445312 352.5 369.421875 352.5 375 C 352.5 380.578125 353.394531 385.554688 354.871094 390 L 232.5 390 C 224.226562 390 217.5 383.273438 217.5 375 C 217.5 366.726562 224.226562 360 232.5 360 Z M 232.5 360 "/>
    </g>
</svg>
