<?xml version="1.0" encoding="UTF-8"?>
<svg xmlns="http://www.w3.org/2000/svg" width="480pt" height="480pt"
     viewBox="0 0 480 480" version="1.1">
    <g id="surface880">
        <path style=" stroke:none;fill-rule:nonzero;fill:currentColor;fill-opacity:1;"
              d="M 198.75 67.5 C 173.242188 67.5 151.351562 84.765625 144.652344 108.488281 C 108.0625 118.992188 82.5 152.242188 82.5 191.25 C 82.5 204.457031 85.519531 217.386719 91.316406 229.160156 C 85.519531 239.269531 82.5 250.628906 82.5 262.5 C 82.5 282.464844 91.40625 301.246094 106.363281 313.945312 C 105.453125 317.964844 105 322.074219 105 326.25 C 105 352.710938 123.328125 375.058594 148.257812 380.949219 C 157.550781 399.929688 177.089844 412.5 198.75 412.5 C 215.054688 412.5 229.71875 405.484375 240 394.363281 C 250.28125 405.484375 264.945312 412.5 281.25 412.5 C 302.910156 412.5 322.449219 399.929688 331.742188 380.949219 C 356.671875 375.058594 375 352.710938 375 326.25 C 375 322.074219 374.546875 317.964844 373.636719 313.945312 C 388.59375 301.246094 397.5 282.464844 397.5 262.5 C 397.5 250.628906 394.480469 239.269531 388.683594 229.160156 C 394.480469 217.386719 397.5 204.457031 397.5 191.25 C 397.5 152.242188 371.9375 118.992188 335.347656 108.488281 C 328.648438 84.765625 306.757812 67.5 281.25 67.5 C 264.945312 67.5 250.28125 74.515625 240 85.636719 C 229.71875 74.515625 215.054688 67.5 198.75 67.5 Z M 198.75 97.5 C 213.226562 97.5 225 109.273438 225 123.75 L 225 356.25 C 225 370.726562 213.226562 382.5 198.75 382.5 C 183.847656 382.5 173.308594 370.863281 170.609375 352.96875 C 151.074219 354.394531 135 345.511719 135 326.25 C 135 317.183594 139.550781 311.746094 143.878906 302.09375 C 127.363281 294.292969 112.5 283.753906 112.5 262.5 C 112.5 252.992188 116.179688 245.796875 120.378906 239.808594 C 132.984375 229.007812 150.832031 233.136719 154.597656 235.808594 C 160.480469 241.457031 169.824219 241.394531 175.605469 235.605469 C 181.464844 229.746094 181.464844 220.253906 175.605469 214.394531 C 168.121094 206.910156 153.5625 202.378906 138.675781 202.777344 C 130.300781 203.015625 122.332031 204.847656 115.09375 208.066406 C 113.496094 203.140625 112.5 197.667969 112.5 191.25 C 112.5 151.351562 147.609375 134.066406 171.796875 133.917969 C 170.167969 111.339844 181.703125 97.5 198.75 97.5 Z M 281.25 97.5 C 298.296875 97.5 309.832031 111.339844 308.203125 133.917969 C 332.390625 134.066406 367.5 151.351562 367.5 191.25 C 367.5 207.570312 361.160156 217.929688 354.375 228.105469 C 346.265625 237.410156 336.976562 239.261719 328.566406 240.074219 C 320.316406 240.867188 314.285156 248.191406 315.074219 256.433594 C 315.824219 264.191406 322.34375 270 329.984375 270 C 330.464844 270 330.949219 269.972656 331.433594 269.925781 C 338.441406 269.25 352.957031 267.789062 367.089844 257.125 C 367.347656 258.835938 367.5 260.625 367.5 262.5 C 367.5 283.753906 352.636719 294.292969 336.121094 302.09375 C 340.449219 311.746094 345 317.183594 345 326.25 C 345 342.589844 333.382812 351.390625 317.945312 352.835938 L 317.945312 352.792969 C 309.394531 351.082031 307.710938 346.929688 307.484375 344.546875 C 307.246094 336.476562 300.628906 330 292.5 330 C 284.21875 330 277.5 336.71875 277.5 345 C 277.5 353.242188 282.019531 368.125 297.230469 376.773438 C 292.800781 380.394531 287.433594 382.5 281.25 382.5 C 266.773438 382.5 255 370.726562 255 356.25 L 255 123.75 C 255 109.273438 266.773438 97.5 281.25 97.5 Z M 188.832031 142.558594 C 181.902344 141.941406 175.210938 146.25 173.128906 153.191406 C 171.976562 157.0625 165.222656 157.484375 164.808594 157.5 C 156.613281 157.605469 150 164.28125 150 172.5 C 150 180.78125 156.71875 187.5 165 187.5 C 175.828125 187.5 195.789062 182.085938 201.871094 161.808594 C 204.246094 153.871094 199.75 145.507812 191.808594 143.128906 C 190.820312 142.832031 189.824219 142.648438 188.832031 142.558594 Z M 292.5 157.5 C 284.21875 157.5 277.5 164.21875 277.5 172.5 C 277.5 184.785156 284.539062 209.898438 311.132812 216.988281 C 312.429688 217.332031 313.738281 217.5 315.015625 217.5 C 321.652344 217.5 327.710938 213.078125 329.503906 206.367188 C 331.632812 198.355469 326.863281 190.136719 318.867188 187.996094 C 308.425781 185.222656 307.566406 174.535156 307.5 172.339844 C 307.410156 164.125 300.726562 157.5 292.5 157.5 Z M 165.863281 270.027344 C 158.878906 269.632812 152.367188 274.144531 150.496094 281.132812 C 148.367188 289.144531 153.136719 297.351562 161.132812 299.488281 C 171.574219 302.269531 172.433594 312.964844 172.5 315.160156 C 172.589844 323.375 179.273438 330 187.5 330 C 195.78125 330 202.5 323.28125 202.5 315 C 202.5 302.714844 195.460938 277.59375 168.867188 270.496094 C 167.859375 270.234375 166.863281 270.085938 165.863281 270.027344 Z M 165.863281 270.027344 "/>
    </g>
</svg>
