<?xml version="1.0" encoding="UTF-8"?>
<svg xmlns="http://www.w3.org/2000/svg" width="480pt" height="480pt"
     viewBox="0 0 480 480" version="1.1">
    <g id="surface2608">
        <path style=" stroke:none;fill-rule:nonzero;fill:currentColor;fill-opacity:1;"
              d="M 217.5 52.5 C 192.644531 52.5 172.5 72.644531 172.5 97.5 L 112.5 97.5 C 87.644531 97.5 67.5 117.644531 67.5 142.5 L 67.5 337.5 C 67.5 362.355469 87.644531 382.5 112.5 382.5 L 367.5 382.5 C 392.355469 382.5 412.5 362.355469 412.5 337.5 L 412.5 142.5 C 412.5 117.644531 392.355469 97.5 367.5 97.5 L 307.5 97.5 C 307.5 72.644531 287.355469 52.5 262.5 52.5 Z M 217.5 82.5 L 262.5 82.5 C 270.78125 82.5 277.5 89.210938 277.5 97.5 L 202.5 97.5 C 202.5 89.210938 209.21875 82.5 217.5 82.5 Z M 112.5 127.5 L 367.5 127.5 C 375.789062 127.5 382.5 134.210938 382.5 142.5 L 382.5 204.960938 C 358.953125 208.992188 302.078125 217.5 240 217.5 C 177.941406 217.5 121.066406 208.996094 97.5 204.960938 L 97.5 142.5 C 97.5 134.210938 104.210938 127.5 112.5 127.5 Z M 97.5 235.386719 C 118.886719 238.917969 157.457031 244.308594 202.5 246.488281 L 202.5 247.5 C 202.5 255.789062 209.210938 262.5 217.5 262.5 L 255 262.5 C 263.289062 262.5 270 255.789062 270 247.5 L 270 246.886719 C 318.285156 244.992188 359.917969 239.113281 382.5 235.386719 L 382.5 337.5 C 382.5 345.789062 375.789062 352.5 367.5 352.5 L 112.5 352.5 C 104.210938 352.5 97.5 345.789062 97.5 337.5 Z M 97.5 235.386719 "/>
    </g>
</svg>
