<?xml version="1.0" encoding="UTF-8"?>
<svg xmlns="http://www.w3.org/2000/svg" width="480pt" height="480pt"
     viewBox="0 0 480 480" version="1.1">
    <g id="surface1192">
        <path style=" stroke:none;fill-rule:nonzero;fill:currentColor;fill-opacity:1;"
              d="M 127.5 90 C 102.683594 90 82.5 110.183594 82.5 135 L 82.5 345 C 82.5 369.816406 102.683594 390 127.5 390 L 352.5 390 C 377.316406 390 397.5 369.816406 397.5 345 L 397.5 135 C 397.5 110.183594 377.316406 90 352.5 90 Z M 127.5 172.5 L 352.5 172.5 C 360.773438 172.5 367.5 179.226562 367.5 187.5 L 367.5 345 C 367.5 353.273438 360.773438 360 352.5 360 L 127.5 360 C 119.226562 360 112.5 353.273438 112.5 345 L 112.5 187.5 C 112.5 179.226562 119.226562 172.5 127.5 172.5 Z M 202.5 195 C 198.359375 195 195 198.359375 195 202.5 L 195 217.5 C 195 221.640625 198.359375 225 202.5 225 L 217.5 225 C 221.640625 225 225 221.640625 225 217.5 L 225 202.5 C 225 198.359375 221.640625 195 217.5 195 Z M 262.5 195 C 258.359375 195 255 198.359375 255 202.5 L 255 217.5 C 255 221.640625 258.359375 225 262.5 225 L 277.5 225 C 281.640625 225 285 221.640625 285 217.5 L 285 202.5 C 285 198.359375 281.640625 195 277.5 195 Z M 322.5 195 C 318.359375 195 315 198.359375 315 202.5 L 315 217.5 C 315 221.640625 318.359375 225 322.5 225 L 337.5 225 C 341.640625 225 345 221.640625 345 217.5 L 345 202.5 C 345 198.359375 341.640625 195 337.5 195 Z M 142.5 247.5 C 138.359375 247.5 135 250.859375 135 255 L 135 270 C 135 274.140625 138.359375 277.5 142.5 277.5 L 157.5 277.5 C 161.640625 277.5 165 274.140625 165 270 L 165 255 C 165 250.859375 161.640625 247.5 157.5 247.5 Z M 202.5 247.5 C 198.359375 247.5 195 250.859375 195 255 L 195 270 C 195 274.140625 198.359375 277.5 202.5 277.5 L 217.5 277.5 C 221.640625 277.5 225 274.140625 225 270 L 225 255 C 225 250.859375 221.640625 247.5 217.5 247.5 Z M 262.5 247.5 C 258.359375 247.5 255 250.859375 255 255 L 255 270 C 255 274.140625 258.359375 277.5 262.5 277.5 L 277.5 277.5 C 281.640625 277.5 285 274.140625 285 270 L 285 255 C 285 250.859375 281.640625 247.5 277.5 247.5 Z M 322.5 247.5 C 318.359375 247.5 315 250.859375 315 255 L 315 270 C 315 274.140625 318.359375 277.5 322.5 277.5 L 337.5 277.5 C 341.640625 277.5 345 274.140625 345 270 L 345 255 C 345 250.859375 341.640625 247.5 337.5 247.5 Z M 142.5 300 C 138.359375 300 135 303.359375 135 307.5 L 135 322.5 C 135 326.640625 138.359375 330 142.5 330 L 157.5 330 C 161.640625 330 165 326.640625 165 322.5 L 165 307.5 C 165 303.359375 161.640625 300 157.5 300 Z M 202.5 300 C 198.359375 300 195 303.359375 195 307.5 L 195 322.5 C 195 326.640625 198.359375 330 202.5 330 L 217.5 330 C 221.640625 330 225 326.640625 225 322.5 L 225 307.5 C 225 303.359375 221.640625 300 217.5 300 Z M 262.5 300 C 258.359375 300 255 303.359375 255 307.5 L 255 322.5 C 255 326.640625 258.359375 330 262.5 330 L 277.5 330 C 281.640625 330 285 326.640625 285 322.5 L 285 307.5 C 285 303.359375 281.640625 300 277.5 300 Z M 262.5 300 "/>
    </g>
</svg>
