<?xml version="1.0" encoding="UTF-8"?>
<svg xmlns="http://www.w3.org/2000/svg" width="480pt" height="480pt"
     viewBox="0 0 480 480" version="1.1">
    <g id="surface3309">
        <path style=" stroke:none;fill-rule:nonzero;fill:currentColor;fill-opacity:1;"
              d="M 240 67.5 C 231.71875 67.5 225 74.21875 225 82.5 C 225 90.78125 231.71875 97.5 240 97.5 L 292.5 97.5 L 292.5 166.199219 C 285.339844 167.257812 278.238281 168.976562 271.289062 171.535156 L 137.785156 213.707031 C 134.867188 214.492188 132.007812 215.390625 129.199219 216.417969 L 127.355469 217.003906 L 127.382812 217.089844 C 88.035156 232.261719 60 270.367188 60 315 C 60 372.898438 107.101562 420 165 420 C 177.222656 420 188.914062 417.792969 199.832031 413.933594 L 199.863281 414.039062 L 342.863281 368.789062 C 384.523438 353.878906 412.5 314.167969 412.5 270 C 412.5 217.207031 373.300781 173.515625 322.5 166.199219 L 322.5 97.5 L 375 97.5 C 383.28125 97.5 390 90.78125 390 82.5 C 390 74.21875 383.28125 67.5 375 67.5 Z M 307.5 195 C 342.582031 195 372.035156 219.242188 380.183594 251.835938 L 266.324219 287.886719 C 258.5625 258.929688 238.773438 234.914062 212.59375 221.527344 C 246.875 210.695312 281.273438 199.832031 281.382812 199.789062 C 289.910156 196.609375 298.703125 195 307.5 195 Z M 165 240 C 206.355469 240 240 273.644531 240 315 C 240 356.355469 206.355469 390 165 390 C 123.644531 390 90 356.355469 90 315 C 90 282.992188 110.1875 255.683594 138.472656 244.9375 C 138.699219 244.863281 145.4375 242.742188 146.46875 242.417969 C 152.40625 240.898438 158.597656 240 165 240 Z M 165 277.5 C 144.300781 277.5 127.5 294.300781 127.5 315 C 127.5 335.699219 144.300781 352.5 165 352.5 C 185.699219 352.5 202.5 335.699219 202.5 315 C 202.5 312.375 202.203125 309.753906 201.753906 307.28125 C 194.027344 308.179688 186.070312 305.707031 180.21875 299.78125 C 174.292969 293.929688 171.820312 285.972656 172.71875 278.246094 C 170.246094 277.796875 167.625 277.5 165 277.5 Z M 381.328125 282.933594 C 376.714844 309.070312 358.4375 331.347656 333.28125 340.371094 L 257.667969 364.292969 C 265.042969 350.480469 269.332031 334.824219 269.839844 318.222656 Z M 381.328125 282.933594 "/>
    </g>
</svg>
