<?xml version="1.0" encoding="UTF-8"?>
<svg xmlns="http://www.w3.org/2000/svg" width="480pt" height="480pt"
     viewBox="0 0 480 480" version="1.1">
    <g id="surface4052">
        <path style=" stroke:none;fill-rule:nonzero;fill:currentColor;fill-opacity:1;"
              d="M 112.5 97.5 C 87.675781 97.5 67.5 117.675781 67.5 142.5 L 67.5 337.5 C 67.5 362.324219 87.675781 382.5 112.5 382.5 L 180 382.5 L 180 374.78125 C 174.976562 368.179688 171.082031 360.601562 168.53125 352.5 L 112.5 352.5 C 104.25 352.5 97.5 345.75 97.5 337.5 L 97.5 142.5 C 97.5 134.25 104.25 127.5 112.5 127.5 L 367.5 127.5 C 375.75 127.5 382.5 134.25 382.5 142.5 L 382.5 337.5 C 382.5 345.75 375.75 352.5 367.5 352.5 L 311.46875 352.5 C 308.917969 360.601562 305.023438 368.179688 300 374.78125 L 300 382.5 L 367.5 382.5 C 392.324219 382.5 412.5 362.324219 412.5 337.5 L 412.5 142.5 C 412.5 117.675781 392.324219 97.5 367.5 97.5 Z M 153.75 172.5 C 147.539062 172.5 142.5 177.53125 142.5 183.75 C 142.5 189.96875 147.539062 195 153.75 195 L 326.25 195 C 332.460938 195 337.5 189.96875 337.5 183.75 C 337.5 177.53125 332.460938 172.5 326.25 172.5 Z M 183.75 217.5 C 177.539062 217.5 172.5 222.53125 172.5 228.75 C 172.5 234.96875 177.539062 240 183.75 240 L 296.25 240 C 302.460938 240 307.5 234.96875 307.5 228.75 C 307.5 222.53125 302.460938 217.5 296.25 217.5 Z M 240 277.5 C 211.003906 277.5 187.5 301.003906 187.5 330 C 187.5 344.296875 193.230469 357.242188 202.5 366.707031 L 202.5 416.25 C 202.5 417.515625 203.140625 418.710938 204.199219 419.398438 C 205.257812 420.089844 206.601562 420.1875 207.773438 419.675781 L 240 405.351562 L 272.226562 419.675781 C 272.714844 419.894531 273.234375 420 273.75 420 C 274.46875 420 275.171875 419.804688 275.785156 419.398438 C 276.851562 418.710938 277.5 417.515625 277.5 416.25 L 277.5 366.707031 C 286.769531 357.242188 292.5 344.296875 292.5 330 C 292.5 301.003906 268.996094 277.5 240 277.5 Z M 240 307.5 C 252.425781 307.5 262.5 317.574219 262.5 330 C 262.5 342.425781 252.425781 352.5 240 352.5 C 227.574219 352.5 217.5 342.425781 217.5 330 C 217.5 317.574219 227.574219 307.5 240 307.5 Z M 240 307.5 "/>
    </g>
</svg>
