<?xml version="1.0" encoding="UTF-8"?>
<svg xmlns="http://www.w3.org/2000/svg" width="480pt" height="480pt"
     viewBox="0 0 480 480" version="1.1">
    <g id="surface3661">
        <path style=" stroke:none;fill-rule:nonzero;fill:currentColor;fill-opacity:1;"
              d="M 112.5 105 C 87.683594 105 67.5 125.183594 67.5 150 L 67.5 330 C 67.5 354.816406 87.683594 375 112.5 375 L 367.5 375 C 392.316406 375 412.5 354.816406 412.5 330 L 412.5 150 C 412.5 125.183594 392.316406 105 367.5 105 Z M 122.621094 135 L 357.394531 135 L 265.824219 221.980469 C 251.351562 235.746094 228.648438 235.746094 214.175781 221.980469 Z M 97.5 152.535156 L 193.503906 243.734375 C 206.539062 256.117188 223.273438 262.308594 240 262.308594 C 256.726562 262.308594 273.453125 256.109375 286.496094 243.734375 L 382.5 152.535156 L 382.5 330 C 382.5 338.273438 375.773438 345 367.5 345 L 112.5 345 C 104.226562 345 97.5 338.273438 97.5 330 Z M 97.5 152.535156 "/>
    </g>
</svg>
