<?xml version="1.0" encoding="UTF-8"?>
<svg xmlns="http://www.w3.org/2000/svg" width="480pt" height="480pt"
     viewBox="0 0 480 480" version="1.1">
    <g id="surface3634">
        <path style=" stroke:none;fill-rule:nonzero;fill:currentColor;fill-opacity:1;"
              d="M 240 75 C 148.875 75 75 148.875 75 240 C 75 331.125 148.875 405 240 405 C 331.125 405 405 331.125 405 240 C 405 148.875 331.125 75 240 75 Z M 240 105 C 314.558594 105 375 165.441406 375 240 C 375 301.789062 333.441406 353.769531 276.78125 369.800781 C 276.085938 368.367188 275.609375 366.792969 275.652344 365.011719 C 275.886719 355.941406 275.652344 334.78125 275.652344 327.011719 C 275.652344 313.675781 267.214844 304.21875 267.214844 304.21875 C 267.214844 304.21875 333.398438 304.964844 333.398438 234.347656 C 333.398438 207.097656 319.160156 192.90625 319.160156 192.90625 C 319.160156 192.90625 326.640625 163.816406 316.566406 151.480469 C 305.28125 150.257812 285.0625 162.261719 276.429688 167.871094 C 276.429688 167.871094 262.753906 162.261719 240 162.261719 C 217.246094 162.261719 203.570312 167.871094 203.570312 167.871094 C 194.9375 162.261719 174.71875 150.265625 163.433594 151.480469 C 153.367188 163.816406 160.839844 192.90625 160.839844 192.90625 C 160.839844 192.90625 146.601562 207.082031 146.601562 234.332031 C 146.601562 304.949219 212.785156 304.21875 212.785156 304.21875 C 212.785156 304.21875 205.246094 312.796875 204.492188 325.09375 C 200.070312 326.652344 194.039062 328.492188 188.292969 328.492188 C 174.417969 328.492188 163.875 315.015625 160.003906 308.773438 C 156.195312 302.617188 148.382812 297.449219 141.09375 297.449219 C 136.292969 297.449219 133.945312 299.863281 133.945312 302.605469 C 133.945312 305.351562 140.683594 307.261719 145.121094 312.347656 C 154.480469 323.074219 154.308594 347.199219 187.660156 347.199219 C 191.605469 347.199219 198.691406 346.289062 204.347656 345.511719 C 204.3125 353.085938 204.226562 360.347656 204.347656 364.996094 C 204.390625 366.785156 203.902344 368.363281 203.203125 369.800781 C 146.550781 353.765625 105 301.785156 105 240 C 105 165.441406 165.441406 105 240 105 Z M 240 105 "/>
    </g>
</svg>
