<?xml version="1.0" encoding="UTF-8"?>
<svg xmlns="http://www.w3.org/2000/svg" width="480pt" height="480pt"
     viewBox="0 0 480 480" version="1.1">
    <g id="surface2626">
        <path style=" stroke:none;fill-rule:nonzero;fill:currentColor;fill-opacity:1;"
              d="M 239.972656 90.277344 C 231.863281 90.277344 223.761719 91.910156 216.226562 95.171875 L 158.101562 120.21875 L 196.65625 136.273438 L 228.148438 122.695312 C 231.898438 121.046875 235.949219 120.21875 240 120.21875 C 244.050781 120.21875 248.101562 121.046875 251.851562 122.695312 L 411.636719 191.558594 C 413.007812 192.148438 413.890625 193.507812 413.890625 195 C 413.890625 196.492188 413.007812 197.851562 411.636719 198.441406 L 251.851562 267.304688 C 244.351562 270.53125 235.648438 270.53125 228.148438 267.304688 L 68.363281 198.441406 C 66.992188 197.851562 66.09375 196.5 66.09375 195 C 66.09375 193.5 66.992188 192.148438 68.363281 191.558594 L 129.507812 165.21875 L 234.230469 208.84375 C 236.117188 209.628906 238.066406 210 239.984375 210 C 245.859375 210 251.449219 206.539062 253.84375 200.769531 C 257.03125 193.128906 253.421875 184.34375 245.769531 181.15625 L 167.839844 148.683594 L 167.929688 148.652344 L 129.375 132.597656 L 48.53125 167.476562 C 37.503906 172.199219 30.378906 183 30.378906 195 C 30.378906 207 37.503906 217.800781 48.53125 222.523438 L 97.5 243.632812 L 97.5 371.339844 C 92.96875 374.761719 90 380.132812 90 386.25 L 90 416.25 C 90 426.609375 98.390625 435 108.75 435 L 116.25 435 C 126.609375 435 135 426.609375 135 416.25 L 135 386.25 C 135 380.132812 132.03125 374.761719 127.5 371.339844 L 127.5 343.035156 C 148.585938 358.164062 184.355469 375 240 375 C 310.800781 375 349.804688 347.6875 366.738281 331.40625 C 376.757812 321.785156 382.5 308.113281 382.5 293.890625 L 382.5 243.632812 L 431.46875 222.523438 C 442.496094 217.800781 449.621094 207 449.621094 195 C 449.621094 183 442.496094 172.199219 431.46875 167.476562 L 263.773438 95.171875 C 256.199219 91.910156 248.082031 90.277344 239.972656 90.277344 Z M 127.5 256.566406 L 216.226562 294.828125 C 223.800781 298.128906 231.898438 299.707031 240 299.707031 C 248.101562 299.707031 256.199219 298.128906 263.773438 294.828125 L 352.5 256.566406 L 352.5 293.890625 C 352.5 299.988281 350.113281 305.773438 345.953125 309.769531 C 332.265625 322.925781 300.292969 345 240 345 C 179.707031 345 147.734375 322.925781 134.046875 309.769531 C 129.886719 305.773438 127.5 299.988281 127.5 293.890625 Z M 127.5 256.566406 "/>
    </g>
</svg>
