<?xml version="1.0" encoding="UTF-8"?>
<svg xmlns="http://www.w3.org/2000/svg" width="480pt" height="480pt"
     viewBox="0 0 480 480" version="1.1">
    <g id="surface2955">
        <path style=" stroke:none;fill-rule:nonzero;fill:currentColor;fill-opacity:1;"
              d="M 335.082031 105.191406 C 322.609375 105.183594 310.125 109.949219 300.585938 119.488281 L 241.214844 178.855469 C 185.242188 135.09375 135.753906 114.671875 133.140625 113.597656 C 127.640625 111.378906 121.375 112.566406 117.097656 116.675781 C 112.839844 120.777344 111.367188 127.011719 113.378906 132.582031 C 114.3125 135.175781 132.472656 184.632812 177.597656 242.476562 L 130.429688 289.644531 C 129.011719 291.0625 127.890625 292.742188 127.132812 294.609375 L 94.074219 376.1875 C 91.792969 381.796875 93.121094 388.238281 97.425781 392.488281 C 100.292969 395.324219 104.105469 396.824219 107.972656 396.824219 C 109.929688 396.824219 111.90625 396.441406 113.773438 395.667969 L 194.558594 361.816406 C 196.367188 361.058594 197.984375 359.960938 199.363281 358.578125 L 244.949219 312.992188 C 261.101562 326.828125 274.347656 336.464844 280.339844 340.605469 C 302.472656 386.347656 344.574219 398.246094 372.128906 398.246094 C 376.847656 398.246094 381.140625 397.910156 384.828125 397.324219 C 392.292969 396.148438 397.710938 389.605469 397.484375 382.058594 C 395.527344 316.421875 353.183594 288.878906 339.285156 281.574219 C 335.054688 275.585938 325.066406 262.050781 311.660156 246.285156 L 369.519531 188.421875 C 388.527344 169.417969 388.527344 138.5 369.519531 119.488281 C 360.011719 109.972656 347.554688 105.195312 335.082031 105.191406 Z M 335.066406 135.378906 C 339.925781 135.378906 344.78125 137.144531 348.324219 140.683594 C 355.636719 147.996094 355.636719 159.898438 348.324219 167.210938 L 332.871094 182.667969 L 306.355469 156.152344 L 321.8125 140.683594 C 325.355469 137.144531 330.210938 135.378906 335.066406 135.378906 Z M 159.609375 160.445312 C 176.429688 169.957031 197.503906 183.4375 219.636719 200.433594 L 199.191406 220.882812 C 181.984375 198.394531 168.75 177.246094 159.609375 160.445312 Z M 285.144531 177.363281 L 311.660156 203.878906 L 194.0625 321.460938 L 167.550781 294.945312 Z M 290.316406 267.628906 C 296.734375 275.253906 303.597656 283.570312 309.785156 291.3125 L 289.261719 311.835938 C 281.699219 305.453125 273.914062 298.535156 266.207031 291.738281 Z M 331.054688 312.464844 C 345.769531 321.457031 361.136719 338.527344 366.066406 367.878906 C 334.429688 365.339844 319.191406 348.296875 310.003906 333.515625 Z M 149.503906 319.308594 L 169.832031 339.636719 L 135.410156 354.066406 Z M 149.503906 319.308594 "/>
    </g>
</svg>
