<?xml version="1.0" encoding="UTF-8"?>
<svg xmlns="http://www.w3.org/2000/svg" width="480pt" height="480pt"
     viewBox="0 0 480 480" version="1.1">
    <g id="surface4015">
        <path style=" stroke:none;fill-rule:nonzero;fill:currentColor;fill-opacity:1;"
              d="M 240 75 C 148.875 75 75 148.875 75 240 C 75 331.125 148.875 405 240 405 C 331.125 405 405 331.125 405 240 C 405 148.875 331.125 75 240 75 Z M 225 110.023438 L 225 180 L 186.652344 180 C 194.792969 145.148438 209.441406 120.113281 225 110.023438 Z M 255 110.023438 C 270.558594 120.113281 285.207031 145.148438 293.347656 180 L 255 180 Z M 177.523438 120.378906 C 168.121094 136.867188 160.761719 157.128906 156.019531 180 L 119.195312 180 C 131.886719 154.5 152.320312 133.570312 177.523438 120.378906 Z M 302.476562 120.378906 C 327.679688 133.570312 348.113281 154.5 360.804688 180 L 323.980469 180 C 319.238281 157.128906 311.878906 136.867188 302.476562 120.378906 Z M 108.457031 210 L 151.507812 210 C 150.570312 219.722656 150 229.710938 150 240 C 150 250.289062 150.570312 260.277344 151.507812 270 L 108.457031 270 C 106.261719 260.339844 105 250.328125 105 240 C 105 229.671875 106.261719 219.660156 108.457031 210 Z M 181.597656 210 L 225 210 L 225 270 L 181.597656 270 C 180.585938 260.453125 180 250.453125 180 240 C 180 229.546875 180.585938 219.546875 181.597656 210 Z M 255 210 L 298.402344 210 C 299.414062 219.546875 300 229.546875 300 240 C 300 250.453125 299.414062 260.453125 298.402344 270 L 255 270 Z M 328.492188 210 L 371.542969 210 C 373.738281 219.660156 375 229.671875 375 240 C 375 250.328125 373.738281 260.339844 371.542969 270 L 328.492188 270 C 329.429688 260.277344 330 250.289062 330 240 C 330 229.710938 329.429688 219.722656 328.492188 210 Z M 119.195312 300 L 156.019531 300 C 160.761719 322.871094 168.121094 343.132812 177.523438 359.621094 C 152.320312 346.429688 131.886719 325.5 119.195312 300 Z M 186.652344 300 L 225 300 L 225 369.976562 C 209.441406 359.886719 194.792969 334.851562 186.652344 300 Z M 255 300 L 293.347656 300 C 285.207031 334.851562 270.558594 359.886719 255 369.976562 Z M 323.980469 300 L 360.804688 300 C 348.113281 325.5 327.679688 346.429688 302.476562 359.621094 C 311.878906 343.132812 319.238281 322.871094 323.980469 300 Z M 323.980469 300 "/>
    </g>
</svg>
