<?xml version="1.0" encoding="UTF-8"?>
<svg xmlns="http://www.w3.org/2000/svg" width="480pt" height="480pt"
     viewBox="0 0 480 480" version="1.1">
    <g id="surface3965">
        <path style=" stroke:none;fill-rule:nonzero;fill:currentColor;fill-opacity:1;"
              d="M 112.5 120 C 91.824219 120 75 136.824219 75 157.5 L 75 330 L 52.5 330 C 44.21875 330 37.5 336.71875 37.5 345 C 37.5 353.28125 44.21875 360 52.5 360 L 427.5 360 C 435.78125 360 442.5 353.28125 442.5 345 C 442.5 336.71875 435.78125 330 427.5 330 L 405 330 L 405 157.5 C 405 136.824219 388.175781 120 367.5 120 Z M 112.5 150 L 367.5 150 C 371.640625 150 375 153.367188 375 157.5 L 375 330 L 105 330 L 105 157.5 C 105 153.367188 108.359375 150 112.5 150 Z M 258.398438 180 C 254.023438 180.140625 249.921875 182.867188 248.246094 187.222656 L 210.746094 284.722656 C 208.519531 290.519531 211.425781 297.027344 217.222656 299.253906 C 218.550781 299.769531 219.898438 300.015625 221.25 300.015625 C 225.773438 300.015625 230.035156 297.261719 231.753906 292.792969 L 269.253906 195.292969 C 271.480469 189.496094 268.574219 182.988281 262.777344 180.761719 C 261.335938 180.203125 259.855469 179.953125 258.398438 180 Z M 296.910156 195.015625 C 294.035156 194.84375 291.101562 195.773438 288.777344 197.839844 C 284.136719 201.972656 283.710938 209.078125 287.839844 213.722656 L 311.191406 240 L 287.839844 266.277344 C 283.710938 270.921875 284.136719 278.035156 288.777344 282.160156 C 290.917969 284.0625 293.582031 285 296.234375 285 C 299.339844 285 302.4375 283.71875 304.660156 281.222656 L 334.660156 247.472656 C 338.445312 243.210938 338.445312 236.789062 334.660156 232.527344 L 304.660156 198.777344 C 302.597656 196.457031 299.785156 195.1875 296.910156 195.015625 Z M 183.089844 195.027344 C 180.214844 195.199219 177.402344 196.457031 175.339844 198.777344 L 145.339844 232.527344 C 141.554688 236.789062 141.554688 243.210938 145.339844 247.472656 L 175.339844 281.222656 C 177.5625 283.71875 180.660156 285 183.765625 285 C 186.414062 285 189.082031 284.0625 191.222656 282.160156 C 195.863281 278.027344 196.289062 270.921875 192.160156 266.277344 L 168.808594 240 L 192.160156 213.722656 C 196.289062 209.078125 195.863281 201.964844 191.222656 197.839844 C 188.90625 195.78125 185.964844 194.859375 183.089844 195.027344 Z M 183.089844 195.027344 "/>
    </g>
</svg>
