<?xml version="1.0" encoding="UTF-8"?>
<svg xmlns="http://www.w3.org/2000/svg" width="480pt" height="480pt"
     viewBox="0 0 480 480" version="1.1">
    <g id="surface3753">
        <path style=" stroke:none;fill-rule:nonzero;fill:currentColor;fill-opacity:1;"
              d="M 240 67.5 C 188.949219 67.5 158.734375 90.65625 142.367188 110.082031 C 118.242188 138.734375 107.859375 179.144531 114.59375 218.203125 C 121.605469 258.851562 135.566406 277.492188 146.777344 292.484375 C 157.351562 306.621094 165 316.851562 165 345 C 165 353.28125 171.71875 360 180 360 L 180.996094 360 C 186.269531 401.253906 213.207031 420 240 420 C 266.792969 420 293.730469 401.253906 299.003906 360 L 300 360 C 308.28125 360 315 353.28125 315 345 C 315 316.851562 322.648438 306.621094 333.222656 292.484375 C 344.433594 277.5 358.394531 258.851562 365.40625 218.203125 C 372.148438 179.144531 361.757812 138.734375 337.632812 110.082031 C 321.265625 90.65625 291.050781 67.5 240 67.5 Z M 59.910156 90 C 55.097656 90.03125 50.386719 92.371094 47.519531 96.679688 C 42.929688 103.570312 44.789062 112.882812 51.679688 117.480469 L 74.179688 132.480469 C 76.730469 134.191406 79.628906 135 82.484375 135 C 87.335938 135 92.085938 132.664062 94.980469 128.320312 C 99.570312 121.429688 97.710938 112.117188 90.820312 107.519531 L 68.320312 92.519531 C 65.734375 90.792969 62.800781 89.980469 59.910156 90 Z M 420.074219 90 C 417.183594 89.980469 414.261719 90.789062 411.679688 92.519531 L 389.179688 107.519531 C 382.289062 112.109375 380.429688 121.429688 385.019531 128.320312 C 387.914062 132.65625 392.667969 135 397.515625 135 C 400.371094 135 403.269531 134.191406 405.820312 132.480469 L 428.320312 117.480469 C 435.210938 112.890625 437.070312 103.570312 432.480469 96.679688 C 429.605469 92.371094 424.886719 90.03125 420.074219 90 Z M 240 97.5 C 271.28125 97.5 297.097656 108.53125 314.675781 129.402344 C 333.179688 151.371094 341.09375 182.65625 335.84375 213.105469 C 330.054688 246.644531 319.445312 260.808594 309.199219 274.511719 C 298.984375 288.152344 288.476562 302.203125 285.703125 330 L 194.28125 330 C 191.507812 302.203125 181.007812 288.160156 170.800781 274.511719 C 160.554688 260.816406 149.9375 246.636719 144.15625 213.089844 C 138.90625 182.648438 146.820312 151.371094 165.324219 129.402344 C 182.902344 108.539062 208.71875 97.5 240 97.5 Z M 45 172.5 C 36.71875 172.5 30 179.21875 30 187.5 C 30 195.78125 36.71875 202.5 45 202.5 L 75 202.5 C 83.28125 202.5 90 195.78125 90 187.5 C 90 179.21875 83.28125 172.5 75 172.5 Z M 405 172.5 C 396.71875 172.5 390 179.21875 390 187.5 C 390 195.78125 396.71875 202.5 405 202.5 L 435 202.5 C 443.28125 202.5 450 195.78125 450 187.5 C 450 179.21875 443.28125 172.5 435 172.5 Z M 82.574219 240 C 79.683594 239.980469 76.761719 240.792969 74.179688 242.519531 L 51.679688 257.519531 C 44.789062 262.109375 42.929688 271.429688 47.519531 278.320312 C 50.414062 282.65625 55.167969 285 60.015625 285 C 62.871094 285 65.769531 284.191406 68.320312 282.480469 L 90.820312 267.480469 C 97.710938 262.890625 99.570312 253.570312 94.980469 246.679688 C 92.105469 242.367188 87.386719 240.027344 82.574219 240 Z M 397.410156 240 C 392.597656 240.03125 387.886719 242.371094 385.019531 246.679688 C 380.429688 253.570312 382.289062 262.882812 389.179688 267.480469 L 411.679688 282.480469 C 414.230469 284.191406 417.128906 285 419.984375 285 C 424.835938 285 429.585938 282.664062 432.480469 278.320312 C 437.070312 271.429688 435.210938 262.117188 428.320312 257.519531 L 405.820312 242.519531 C 403.234375 240.792969 400.300781 239.980469 397.410156 240 Z M 211.214844 360 L 268.785156 360 C 263.988281 387.515625 246.074219 390 240 390 C 233.925781 390 216.011719 387.515625 211.214844 360 Z M 211.214844 360 "/>
    </g>
</svg>
