<?xml version="1.0" encoding="UTF-8"?>
<svg xmlns="http://www.w3.org/2000/svg" width="480pt" height="480pt"
     viewBox="0 0 480 480" version="1.1">
    <g id="surface3763">
        <path style=" stroke:none;fill-rule:nonzero;fill:currentColor;fill-opacity:1;"
              d="M 240 60 C 199.125 60 162.8125 76.15625 137.769531 105.496094 C 112.589844 134.996094 101.109375 174.957031 107.066406 212.359375 C 114.347656 258.160156 131.21875 278.402344 144.785156 294.667969 C 156.957031 309.277344 165 318.921875 165 345 C 165 353.28125 171.71875 360 180 360 L 180.996094 360 C 186.269531 401.253906 213.207031 420 240 420 C 266.792969 420 293.730469 401.253906 299.003906 360 L 300 360 C 308.28125 360 315 353.28125 315 345 C 315 318.921875 323.035156 309.277344 335.214844 294.667969 C 348.773438 278.402344 365.660156 258.160156 372.949219 212.359375 C 378.898438 174.957031 367.410156 135.003906 342.230469 105.496094 C 317.1875 76.15625 280.875 60 240 60 Z M 240 90 C 280.957031 90 305.78125 109.019531 319.410156 124.980469 C 338.96875 147.894531 347.90625 178.796875 343.316406 207.640625 C 337.339844 245.292969 324.53125 260.628906 312.171875 275.464844 C 300.773438 289.144531 289.042969 303.210938 285.847656 330 L 194.152344 330 C 190.957031 303.210938 179.226562 289.144531 167.828125 275.464844 C 155.46875 260.628906 142.667969 245.292969 136.683594 207.640625 C 132.09375 178.796875 141.039062 147.894531 160.589844 124.980469 C 174.21875 109.019531 199.042969 90 240 90 Z M 211.214844 360 L 268.785156 360 C 263.988281 387.515625 246.074219 390 240 390 C 233.925781 390 216.011719 387.515625 211.214844 360 Z M 211.214844 360 "/>
    </g>
</svg>
