<?xml version="1.0" encoding="UTF-8"?>
<svg xmlns="http://www.w3.org/2000/svg" width="480pt" height="480pt"
     viewBox="0 0 480 480" version="1.1">
    <g id="surface3919">
        <path style=" stroke:none;fill-rule:nonzero;fill:currentColor;fill-opacity:1;"
              d="M 178.300781 90 C 96.414062 90 90 96.410156 90 178.300781 L 90 301.699219 C 90 383.585938 96.414062 390 178.300781 390 L 301.699219 390 C 383.585938 390 390 383.589844 390 301.699219 L 390 178.300781 C 390 96.410156 383.589844 90 301.699219 90 Z M 158.761719 120 L 321.238281 120 C 357.1875 120 360 122.8125 360 158.761719 L 360 321.238281 C 360 357.1875 357.179688 360 321.238281 360 L 158.761719 360 C 122.8125 360 120 357.179688 120 321.238281 L 120 158.761719 C 120 122.8125 122.8125 120 158.761719 120 Z M 168.765625 138.777344 C 156.546875 138.777344 146.644531 148.679688 146.644531 160.882812 C 146.644531 173.085938 156.539062 183.003906 168.765625 183.003906 C 180.953125 183.003906 190.855469 173.09375 190.855469 160.882812 C 190.855469 148.695312 180.953125 138.777344 168.765625 138.777344 Z M 284.503906 197.417969 C 266.050781 197.417969 253.675781 207.542969 248.613281 217.132812 L 248.085938 217.132812 L 248.085938 200.464844 L 211.714844 200.464844 L 211.714844 322.5 L 249.609375 322.5 L 249.609375 262.121094 C 249.609375 246.195312 252.65625 230.785156 272.386719 230.785156 C 291.84375 230.785156 292.089844 249.007812 292.089844 263.160156 L 292.089844 322.5 L 330 322.5 L 330 255.558594 C 330 222.691406 322.910156 197.417969 284.503906 197.417969 Z M 149.792969 200.464844 L 149.792969 322.5 L 187.71875 322.5 L 187.71875 200.464844 Z M 149.792969 200.464844 "/>
    </g>
</svg>
