<?xml version="1.0" encoding="UTF-8"?>
<svg xmlns="http://www.w3.org/2000/svg" width="480pt" height="480pt"
     viewBox="0 0 480 480" version="1.1">
    <g id="surface2648">
        <path style=" stroke:none;fill-rule:nonzero;fill:currentColor;fill-opacity:1;"
              d="M 161.25 75 C 156.863281 75 153.007812 78.003906 151.933594 82.28125 L 148.125 97.5 L 142.5 97.5 C 117.683594 97.5 97.5 117.683594 97.5 142.5 L 97.5 148.59375 L 84.15625 151.933594 C 79.878906 153.007812 76.875 156.863281 76.875 161.25 C 76.875 165.644531 79.878906 169.492188 84.15625 170.566406 L 97.5 173.90625 L 97.5 201.09375 L 84.15625 204.433594 C 79.878906 205.507812 76.875 209.363281 76.875 213.75 C 76.875 218.144531 79.878906 221.992188 84.15625 223.066406 L 97.5 226.40625 L 97.5 253.59375 L 84.15625 256.933594 C 79.878906 258.007812 76.875 261.855469 76.875 266.25 C 76.875 270.644531 79.878906 274.492188 84.15625 275.566406 L 97.5 278.90625 L 97.5 306.09375 L 84.15625 309.433594 C 79.878906 310.507812 76.875 314.355469 76.875 318.75 C 76.875 323.144531 79.878906 326.992188 84.15625 328.066406 L 97.5 331.40625 L 97.5 337.5 C 97.5 362.316406 117.683594 382.5 142.5 382.5 L 148.125 382.5 L 151.933594 397.71875 C 153.007812 401.996094 156.863281 405 161.25 405 C 165.636719 405 169.492188 401.996094 170.566406 397.71875 L 174.375 382.5 L 200.625 382.5 L 204.433594 397.71875 C 205.507812 401.996094 209.363281 405 213.75 405 C 218.136719 405 221.992188 401.996094 223.066406 397.71875 L 226.875 382.5 L 253.125 382.5 L 256.933594 397.71875 C 258.007812 401.996094 261.863281 405 266.25 405 C 270.636719 405 274.492188 401.996094 275.566406 397.71875 L 279.375 382.5 L 305.625 382.5 L 309.433594 397.71875 C 310.507812 401.996094 314.363281 405 318.75 405 C 323.136719 405 326.992188 401.996094 328.066406 397.71875 L 331.875 382.5 L 337.5 382.5 C 362.316406 382.5 382.5 362.316406 382.5 337.5 L 382.5 331.875 L 397.71875 328.066406 C 401.996094 326.992188 405 323.136719 405 318.75 C 405 314.363281 401.996094 310.507812 397.71875 309.433594 L 382.5 305.625 L 382.5 279.375 L 397.71875 275.566406 C 401.996094 274.492188 405 270.636719 405 266.25 C 405 261.863281 401.996094 258.007812 397.71875 256.933594 L 382.5 253.125 L 382.5 226.875 L 397.71875 223.066406 C 401.996094 221.992188 405 218.136719 405 213.75 C 405 209.363281 401.996094 205.507812 397.71875 204.433594 L 382.5 200.625 L 382.5 174.375 L 397.71875 170.566406 C 401.996094 169.492188 405 165.636719 405 161.25 C 405 156.863281 401.996094 153.007812 397.71875 151.933594 L 382.5 148.125 L 382.5 142.5 C 382.5 117.683594 362.316406 97.5 337.5 97.5 L 331.875 97.5 L 328.066406 82.28125 C 326.992188 78.003906 323.136719 75 318.75 75 C 314.363281 75 310.507812 78.003906 309.433594 82.28125 L 305.625 97.5 L 279.375 97.5 L 275.566406 82.28125 C 274.492188 78.003906 270.636719 75 266.25 75 C 261.863281 75 258.007812 78.003906 256.933594 82.28125 L 253.125 97.5 L 226.875 97.5 L 223.066406 82.28125 C 221.992188 78.003906 218.136719 75 213.75 75 C 209.363281 75 205.507812 78.003906 204.433594 82.28125 L 200.625 97.5 L 174.375 97.5 L 170.566406 82.28125 C 169.492188 78.003906 165.636719 75 161.25 75 Z M 142.5 127.5 L 337.5 127.5 C 345.773438 127.5 352.5 134.226562 352.5 142.5 L 352.5 337.5 C 352.5 345.773438 345.773438 352.5 337.5 352.5 L 142.5 352.5 C 134.226562 352.5 127.5 345.773438 127.5 337.5 L 127.5 142.5 C 127.5 134.226562 134.226562 127.5 142.5 127.5 Z M 187.5 165 C 175.09375 165 165 175.09375 165 187.5 L 165 292.5 C 165 304.90625 175.09375 315 187.5 315 L 292.5 315 C 304.90625 315 315 304.90625 315 292.5 L 315 187.5 C 315 175.09375 304.90625 165 292.5 165 Z M 202.5 195 L 277.5 195 C 281.640625 195 285 198.359375 285 202.5 L 285 277.5 C 285 281.640625 281.640625 285 277.5 285 L 202.5 285 C 198.359375 285 195 281.640625 195 277.5 L 195 202.5 C 195 198.359375 198.359375 195 202.5 195 Z M 202.5 195 "/>
    </g>
</svg>
