<?xml version="1.0" encoding="UTF-8"?>
<svg xmlns="http://www.w3.org/2000/svg" width="480pt" height="480pt"
     viewBox="0 0 480 480" version="1.1">
    <g id="surface1462">
        <path style=" stroke:none;fill-rule:nonzero;fill:currentColor;fill-opacity:1;"
              d="M 134.957031 75 C 114.210938 75 97.457031 91.816406 97.457031 112.5 C 97.457031 133.183594 114.210938 150 134.957031 150 C 155.699219 150 172.457031 133.183594 172.457031 112.5 C 172.457031 91.816406 155.699219 75 134.957031 75 Z M 210 90 C 201.71875 90 195 96.71875 195 105 C 195 113.28125 201.71875 120 210 120 L 367.5 120 C 371.640625 120 375 123.367188 375 127.5 L 375 262.5 C 375 266.632812 371.640625 270 367.5 270 L 225 270 C 216.71875 270 210 276.71875 210 285 C 210 293.28125 216.71875 300 225 300 L 367.5 300 C 388.175781 300 405 283.175781 405 262.5 L 405 127.5 C 405 106.824219 388.175781 90 367.5 90 Z M 120 165 C 99.292969 165 82.5 181.792969 82.5 202.5 L 82.5 285 C 82.5 293.289062 89.21875 300 97.5 300 L 172.5 300 C 180.78125 300 187.5 293.289062 187.5 285 L 187.5 231.226562 C 197.910156 237.945312 206.539062 243.511719 207.347656 244.027344 C 209.492188 245.394531 213.863281 247.5 217.457031 247.5 C 219.742188 247.5 222.035156 246.984375 224.164062 245.917969 L 284.164062 215.917969 C 291.582031 212.207031 294.578125 203.199219 290.875 195.792969 C 287.167969 188.394531 278.1875 185.371094 270.761719 189.082031 L 219.84375 214.542969 L 173.511719 173.511719 C 167.0625 168.277344 158.953125 165 150 165 Z M 134.957031 330 C 114.210938 330 97.457031 346.816406 97.457031 367.5 C 97.457031 388.183594 114.210938 405 134.957031 405 C 155.699219 405 172.457031 388.183594 172.457031 367.5 C 172.457031 346.816406 155.699219 330 134.957031 330 Z M 239.957031 330 C 219.210938 330 202.457031 346.816406 202.457031 367.5 C 202.457031 388.183594 219.210938 405 239.957031 405 C 260.699219 405 277.457031 388.183594 277.457031 367.5 C 277.457031 346.816406 260.699219 330 239.957031 330 Z M 344.957031 330 C 324.210938 330 307.457031 346.816406 307.457031 367.5 C 307.457031 388.183594 324.210938 405 344.957031 405 C 365.699219 405 382.457031 388.183594 382.457031 367.5 C 382.457031 346.816406 365.699219 330 344.957031 330 Z M 344.957031 330 "/>
    </g>
</svg>
