<?xml version="1.0" encoding="UTF-8"?>
<svg xmlns="http://www.w3.org/2000/svg" width="480pt" height="480pt"
     viewBox="0 0 480 480" version="1.1">
    <g id="surface3936">
        <path style=" stroke:none;fill-rule:nonzero;fill:currentColor;fill-opacity:1;"
              d="M 161.210938 293.574219 L 117.945312 293.574219 C 115.34375 293.574219 113.390625 292.394531 112.3125 290.648438 C 111.164062 288.796875 111.105469 286.394531 112.3125 284.054688 L 158.289062 203.4375 C 158.332031 203.332031 158.332031 203.296875 158.289062 203.191406 L 129.039062 152.871094 C 127.808594 150.496094 127.636719 148.140625 128.78125 146.28125 C 129.863281 144.488281 132.058594 143.558594 134.664062 143.558594 L 177.9375 143.558594 C 184.566406 143.558594 187.828125 147.824219 189.96875 151.648438 C 189.96875 151.648438 219.546875 202.898438 219.71875 203.183594 C 217.972656 206.257812 173.015625 285.238281 173.015625 285.238281 C 170.8125 289.230469 167.683594 293.574219 161.210938 293.574219 Z M 367.648438 99.441406 L 271.859375 268.808594 C 271.808594 268.925781 271.808594 269.011719 271.859375 269.085938 L 332.84375 380.558594 C 334.042969 382.957031 334.09375 385.378906 332.941406 387.234375 C 331.828125 389.015625 329.828125 390 327.203125 390 L 283.996094 390 C 277.386719 390 274.050781 385.605469 271.921875 381.742188 C 271.921875 381.742188 210.59375 269.265625 210.425781 268.972656 C 213.488281 263.550781 306.683594 98.25 306.683594 98.25 C 309 94.09375 311.828125 90 318.261719 90 L 361.996094 90 C 364.589844 90 366.644531 90.976562 367.738281 92.773438 C 368.878906 94.621094 368.835938 97.027344 367.648438 99.441406 Z M 367.648438 99.441406 "/>
    </g>
</svg>
